
<svg width="537px" height="537px" viewBox="0 0 537 537" version="1.1" xmlns="http://www.w3.org/2000/svg" xmlns:xlink="http://www.w3.org/1999/xlink">
    <g id="Page-1" stroke="none" stroke-width="1" fill="none" fill-rule="evenodd">
        <g id="Artboard">
            <g id="Group-3" transform="translate(-3.000000, 0.000000)">
                <rect id="Rectangle" fill-opacity="0" fill="#FFFFFF" x="3" y="0" width="537" height="537"></rect>
                <g id="4" transform="translate(0.000000, 73.500000)">
                    <g id="Group-2-Copy-2" transform="translate(43.100748, 8.923786)">
                        <g id="Group" transform="translate(24.374427, 4.250000)">
                            <ellipse id="Oval" fill="#AD814B" cx="71.75" cy="89.1935815" rx="71.5" ry="88.5"></ellipse>
                            <ellipse id="Oval-Copy-3" fill="#EDD7B3" cx="67.0167626" cy="80.5228617" rx="44.2716513" ry="60.1862972"></ellipse>
                        </g>
                        <g id="Group-Copy" transform="translate(362.124427, 93.250000) scale(-1, 1) translate(-362.124427, -93.250000) translate(290.124427, 4.250000)">
                            <ellipse id="Oval" fill="#AD814B" cx="71.75" cy="89.1935815" rx="71.5" ry="88.5"></ellipse>
                            <ellipse id="Oval-Copy-3" fill="#EDD7B3" cx="67.0167626" cy="80.5228617" rx="44.2716513" ry="60.1862972"></ellipse>
                        </g>
                        <path d="M231.874427,375.75 C363.534121,375.75 407.374427,284.75 407.374427,218.25 C407.374427,168.952454 344.374427,22.25 228.124427,22.25 C99.8744274,22.25 48.8744274,185.116559 48.8744274,218.25 C48.8744274,284.75 100.214734,375.75 231.874427,375.75 Z" id="Oval" fill="#AD814B" transform="translate(228.124427, 199.000000) scale(1, -1) translate(-228.124427, -199.000000) "></path>
                        <path d="M150.096134,240.777734 C118.901822,231.62131 96.1244274,202.784462 96.1244274,168.627668 C96.1244274,127.104644 129.78549,93.4435815 171.308514,93.4435815 C194.552699,93.4435815 215.333218,103.991785 229.124427,120.562545 C242.915636,103.991785 263.696156,93.4435815 286.940341,93.4435815 C328.463365,93.4435815 362.124427,127.104644 362.124427,168.627668 C362.124427,202.016318 340.359984,230.32161 310.244351,240.130288 L310.244351,282.440063 C310.244351,324.300673 276.309622,358.235402 234.449012,358.235402 L225.891473,358.235402 C184.030863,358.235402 150.096134,324.300673 150.096134,282.440063 L150.096134,240.777734 Z" id="Combined-Shape" fill="#EDD7B3"></path>
                        <rect id="Rectangle" fill="#1B1B1B" x="162.596355" y="132.801225" width="47.0837228" height="82.5894919" rx="23.5418614"></rect>
                        <path d="M228.00117,331.683737 C251.297922,331.683737 270.183672,312.797988 270.183672,289.501235 L185.818668,289.501235 C185.818668,312.797988 204.704417,331.683737 228.00117,331.683737 Z" id="Oval" fill="#1B1B1B" transform="translate(228.001170, 310.592486) rotate(8.000000) translate(-228.001170, -310.592486) "></path>
                        <rect id="Rectangle-Copy-2" fill="#FFFFFF" x="186.138217" y="141.470191" width="16.4160593" height="28.7953865" rx="8.20802965"></rect>
                        <rect id="Rectangle-Copy" fill="#1B1B1B" x="254.068777" y="132.801225" width="47.0837228" height="82.5894919" rx="23.5418614"></rect>
                        <rect id="Rectangle-Copy-3" fill="#FFFFFF" x="277.610638" y="141.25" width="16.4160593" height="28.7953865" rx="8.20802965"></rect>
                        <ellipse id="Oval" fill="#AD814B" cx="231.874427" cy="235.014647" rx="26" ry="14.5"></ellipse>
                        <path d="M174.127729,36.75 C202.461063,21.75 227.627729,11.75 249.627729,6.75 L203.627729,39.75" id="Path-2" fill="#AD814B" transform="translate(211.877729, 23.250000) rotate(10.000000) translate(-211.877729, -23.250000) "></path>
                        <path d="M7.00424488,205.068118 C27.9594216,181.438222 57.4479614,160.790124 95.4698643,143.123824 L43.0413837,196.282872 L7.00424488,205.068118 Z" id="Path-2-Copy-3" fill="#AD814B" transform="translate(51.237055, 174.095971) scale(-1, 1) rotate(124.000000) translate(-51.237055, -174.095971) "></path>
                        <path d="M373.559352,214.871289 C388.112019,198.46112 408.59082,184.121709 434.995755,171.853056 L398.585935,208.770231 L373.559352,214.871289 Z" id="Path-2-Copy-6" fill="#AD814B" transform="translate(404.277553, 193.362173) rotate(124.000000) translate(-404.277553, -193.362173) "></path>
                        <path d="M195.757718,38.9837946 C222.865182,24.6327844 246.942988,15.0654443 267.991136,10.2817742 L223.981372,41.8539967" id="Path-2-Copy" fill="#AD814B" transform="translate(231.874427, 26.067885) rotate(10.000000) translate(-231.874427, -26.067885) "></path>
                        <path d="M215.802708,40.299388 C242.910172,25.9483778 266.987978,16.3810377 288.036126,11.5973676 L244.026361,43.1695901" id="Path-2-Copy-2" fill="#AD814B" transform="translate(251.919417, 27.383479) rotate(18.000000) translate(-251.919417, -27.383479) "></path>
                    </g>
                    <path d="M105.560385,357.598003 C86.560385,271.931336 83.060385,202.931336 95.060385,150.598003" id="Path-Copy-5" stroke="#58462A" stroke-width="61"></path>
                    <path d="M457.018047,351.37969 C473.966639,276.621165 479.217731,206.621165 472.771323,141.37969" id="Path-Copy-4" stroke="#58462A" stroke-width="61"></path>
                    <path d="M403.731276,160.450237 C403.696589,160.526912 403.661861,160.603633 403.627091,160.680399 C401.900069,159.809547 400.229701,158.906693 398.615984,157.971838 C398.062546,157.659683 397.527159,157.341832 397.010221,157.019683 C379.20668,146.214113 368.635678,131.323064 365.297215,112.346538 C359.69756,80.516922 372.370463,42.792933 394.769081,34.2460917 C403.157844,30.0594991 397.979881,48.4157918 414.679724,64.8908374 C435.293739,42.6542309 456.179724,30.3557486 464.081771,36.7546999 C470.163507,41.6795926 464.716939,55.1399843 453.466164,72.1234565 C473.899285,57.1797326 490.125716,50.7555451 496.571955,58.1710942 C501.45017,63.7828394 492.577609,74.8771739 478.565201,88.1675541 C497.572443,78.2189183 511.494927,73.7506242 514.950894,78.832929 C521.688703,89.6156777 506.404053,118.32523 474.724894,143.592971 C444.963191,167.806292 419.439835,166.924144 403.731276,160.450237 Z" id="Combined-Shape-Copy-5" fill="#BC986C" transform="translate(440.247704, 99.000073) scale(-1, 1) rotate(-37.000000) translate(-440.247704, -99.000073) "></path>
                    <path d="M57.6240457,171.045545 C57.5893592,171.122221 57.5546309,171.198941 57.5198605,171.275707 C55.7928394,170.404855 54.1224706,169.502002 52.5087541,168.567147 C51.9553161,168.254991 51.4199286,167.937141 50.9029908,167.614991 C33.0994498,156.809421 22.5284478,141.918373 19.1899848,122.941846 C13.5903302,91.1122306 26.2632327,53.3882416 48.6618512,44.8414003 C57.0506144,40.6548077 51.8726513,59.0111004 68.5724936,75.486146 C89.1865088,53.2495395 110.072494,40.9510572 117.974541,47.3500085 C124.056277,52.2749012 118.609709,65.735293 107.358934,82.7187651 C127.792055,67.7750413 144.018486,61.3508537 150.464725,68.7664028 C155.34294,74.378148 146.470379,85.4724825 132.457971,98.7628627 C151.465213,88.814227 165.387697,84.3459328 168.843664,89.4282377 C175.581473,100.210986 160.296823,128.920539 128.617664,154.18828 C98.8559609,178.401601 73.332605,177.519452 57.6240457,171.045545 Z" id="Combined-Shape-Copy-4" fill="#D6BA8E" transform="translate(94.140474, 109.595382) rotate(-20.000000) translate(-94.140474, -109.595382) "></path>
                </g>
            </g>
        </g>
    </g>
</svg>