
<svg width="537px" height="537px" viewBox="0 0 537 537" version="1.1" xmlns="http://www.w3.org/2000/svg" xmlns:xlink="http://www.w3.org/1999/xlink">
    <g id="Page-1" stroke="none" stroke-width="1" fill="none" fill-rule="evenodd">
        <g id="Artboard">
            <g id="Group-3" transform="translate(-3.000000, 0.000000)">
                <rect id="Rectangle" fill-opacity="0" fill="#FFFFFF" x="3" y="0" width="537" height="537"></rect>
                <g id="1" transform="translate(43.184489, 81.074266)">
                    <g id="Group-4-Copy-2" transform="translate(0.244101, 0.000000)">
                        <g id="Group-2" transform="translate(0.271323, 0.879690)">
                            <g id="Group" transform="translate(24.374427, 4.250000)">
                                <ellipse id="Oval" fill="#AD814B" cx="71.75" cy="89.1935815" rx="71.5" ry="88.5"></ellipse>
                                <ellipse id="Oval-Copy-3" fill="#EDD7B3" cx="67.0167626" cy="80.5228617" rx="44.2716513" ry="60.1862972"></ellipse>
                            </g>
                            <g id="Group-Copy" transform="translate(362.124427, 93.250000) scale(-1, 1) translate(-362.124427, -93.250000) translate(290.124427, 4.250000)">
                                <ellipse id="Oval" fill="#AD814B" cx="71.75" cy="89.1935815" rx="71.5" ry="88.5"></ellipse>
                                <ellipse id="Oval-Copy-3" fill="#EDD7B3" cx="67.0167626" cy="80.5228617" rx="44.2716513" ry="60.1862972"></ellipse>
                            </g>
                            <path d="M231.874427,375.75 C363.534121,375.75 407.374427,284.75 407.374427,218.25 C407.374427,168.952454 344.374427,22.25 228.124427,22.25 C99.8744274,22.25 48.8744274,185.116559 48.8744274,218.25 C48.8744274,284.75 100.214734,375.75 231.874427,375.75 Z" id="Oval" fill="#AD814B" transform="translate(228.124427, 199.000000) scale(1, -1) translate(-228.124427, -199.000000) "></path>
                            <path d="M150.096134,240.777734 C118.901822,231.62131 96.1244274,202.784462 96.1244274,168.627668 C96.1244274,127.104644 129.78549,93.4435815 171.308514,93.4435815 C194.552699,93.4435815 215.333218,103.991785 229.124427,120.562545 C242.915636,103.991785 263.696156,93.4435815 286.940341,93.4435815 C328.463365,93.4435815 362.124427,127.104644 362.124427,168.627668 C362.124427,202.016318 340.359984,230.32161 310.244351,240.130288 L310.244351,282.440063 C310.244351,324.300673 276.309622,358.235402 234.449012,358.235402 L225.891473,358.235402 C184.030863,358.235402 150.096134,324.300673 150.096134,282.440063 L150.096134,240.777734 Z" id="Combined-Shape" fill="#EDD7B3"></path>
                            <rect id="Rectangle" fill="#1B1B1B" x="162.596355" y="132.801225" width="47.0837228" height="82.5894919" rx="23.5418614"></rect>
                            <rect id="Rectangle-Copy" fill="#1B1B1B" x="254.068777" y="132.801225" width="47.0837228" height="82.5894919" rx="23.5418614"></rect>
                            <ellipse id="Oval" fill="#AD814B" cx="231.874427" cy="235.014647" rx="26" ry="14.5"></ellipse>
                            <path d="M174.127729,36.75 C202.461063,21.75 227.627729,11.75 249.627729,6.75 L203.627729,39.75" id="Path-2" fill="#AD814B" transform="translate(211.877729, 23.250000) rotate(10.000000) translate(-211.877729, -23.250000) "></path>
                            <path d="M7.00424488,205.068118 C27.9594216,181.438222 57.4479614,160.790124 95.4698643,143.123824 L43.0413837,196.282872 L7.00424488,205.068118 Z" id="Path-2-Copy-3" fill="#AD814B" transform="translate(51.237055, 174.095971) scale(-1, 1) rotate(124.000000) translate(-51.237055, -174.095971) "></path>
                            <path d="M373.559352,214.871289 C388.112019,198.46112 408.59082,184.121709 434.995755,171.853056 L398.585935,208.770231 L373.559352,214.871289 Z" id="Path-2-Copy-6" fill="#AD814B" transform="translate(404.277553, 193.362173) rotate(124.000000) translate(-404.277553, -193.362173) "></path>
                            <path d="M195.757718,38.9837946 C222.865182,24.6327844 246.942988,15.0654443 267.991136,10.2817742 L223.981372,41.8539967" id="Path-2-Copy" fill="#AD814B" transform="translate(231.874427, 26.067885) rotate(10.000000) translate(-231.874427, -26.067885) "></path>
                            <path d="M215.802708,40.299388 C242.910172,25.9483778 266.987978,16.3810377 288.036126,11.5973676 L244.026361,43.1695901" id="Path-2-Copy-2" fill="#AD814B" transform="translate(251.919417, 27.383479) rotate(18.000000) translate(-251.919417, -27.383479) "></path>
                            <path d="M220.214788,329.40417 C242.105511,329.315436 257.66034,292.619961 247.039885,299.277514 C242.549737,303.452369 234.580877,305.706922 223.133306,306.041172 C218.706092,306.350753 204.257448,306.09032 197.010654,287.47093 C195.623582,283.907086 194.463825,285.354956 193.531383,291.814539 C192.131353,308.591775 198.324065,329.492904 220.214788,329.40417 Z" id="Oval" fill="#1B1B1B" transform="translate(221.901908, 307.487343) rotate(4.000000) translate(-221.901908, -307.487343) "></path>
                        </g>
                        <rect id="Rectangle-Copy-2" fill="#FFFFFF" x="186.331371" y="143.164357" width="16.4160593" height="28.7953865" rx="8.20802965"></rect>
                        <rect id="Rectangle-Copy-3" fill="#FFFFFF" x="277.803792" y="142.944166" width="16.4160593" height="28.7953865" rx="8.20802965"></rect>
                    </g>
                </g>
            </g>
        </g>
    </g>
</svg>