
<svg width="537px" height="537px" viewBox="0 0 537 537" version="1.1" xmlns="http://www.w3.org/2000/svg" xmlns:xlink="http://www.w3.org/1999/xlink">
    <g id="Page-1" stroke="none" stroke-width="1" fill="none" fill-rule="evenodd">
        <g id="Artboard">
            <g id="Group-3" transform="translate(-3.000000, 0.000000)">
                <rect id="Rectangle" fill-opacity="0" fill="#FFFFFF" x="3" y="0" width="537" height="537"></rect>
                <g id="3" transform="translate(42.373380, 81.500000)">
                    <g id="Group-2-Copy" transform="translate(0.908657, 0.879690)">
                        <g id="Group" transform="translate(24.374427, 4.250000)">
                            <ellipse id="Oval" fill="#AD814B" cx="71.75" cy="89.1935815" rx="71.5" ry="88.5"></ellipse>
                            <ellipse id="Oval-Copy-3" fill="#EDD7B3" cx="67.0167626" cy="80.5228617" rx="44.2716513" ry="60.1862972"></ellipse>
                        </g>
                        <g id="Group-Copy" transform="translate(362.124427, 93.250000) scale(-1, 1) translate(-362.124427, -93.250000) translate(290.124427, 4.250000)">
                            <ellipse id="Oval" fill="#AD814B" cx="71.75" cy="89.1935815" rx="71.5" ry="88.5"></ellipse>
                            <ellipse id="Oval-Copy-3" fill="#EDD7B3" cx="67.0167626" cy="80.5228617" rx="44.2716513" ry="60.1862972"></ellipse>
                        </g>
                        <path d="M231.874427,375.75 C363.534121,375.75 407.374427,284.75 407.374427,218.25 C407.374427,168.952454 344.374427,22.25 228.124427,22.25 C99.8744274,22.25 48.8744274,185.116559 48.8744274,218.25 C48.8744274,284.75 100.214734,375.75 231.874427,375.75 Z" id="Oval" fill="#AD814B" transform="translate(228.124427, 199.000000) scale(1, -1) translate(-228.124427, -199.000000) "></path>
                        <path d="M150.096134,240.777734 C118.901822,231.62131 96.1244274,202.784462 96.1244274,168.627668 C96.1244274,127.104644 129.78549,93.4435815 171.308514,93.4435815 C194.552699,93.4435815 215.333218,103.991785 229.124427,120.562545 C242.915636,103.991785 263.696156,93.4435815 286.940341,93.4435815 C328.463365,93.4435815 362.124427,127.104644 362.124427,168.627668 C362.124427,202.016318 340.359984,230.32161 310.244351,240.130288 L310.244351,282.440063 C310.244351,324.300673 276.309622,358.235402 234.449012,358.235402 L225.891473,358.235402 C184.030863,358.235402 150.096134,324.300673 150.096134,282.440063 L150.096134,240.777734 Z" id="Combined-Shape" fill="#EDD7B3"></path>
                        <rect id="Rectangle" fill="#1B1B1B" x="162.596355" y="132.801225" width="47.0837228" height="82.5894919" rx="23.5418614"></rect>
                        <rect id="Rectangle-Copy-2" fill="#FFFFFF" x="179.138217" y="183.470191" width="16.4160593" height="28.7953865" rx="8.20802965"></rect>
                        <rect id="Rectangle-Copy" fill="#1B1B1B" x="254.068777" y="132.801225" width="47.0837228" height="82.5894919" rx="23.5418614"></rect>
                        <rect id="Rectangle-Copy-3" fill="#FFFFFF" x="270.610638" y="183.25" width="16.4160593" height="28.7953865" rx="8.20802965"></rect>
                        <ellipse id="Oval" fill="#AD814B" cx="231.874427" cy="235.014647" rx="26" ry="14.5"></ellipse>
                        <path d="M174.127729,36.75 C202.461063,21.75 227.627729,11.75 249.627729,6.75 L203.627729,39.75" id="Path-2" fill="#AD814B" transform="translate(211.877729, 23.250000) rotate(10.000000) translate(-211.877729, -23.250000) "></path>
                        <path d="M7.00424488,205.068118 C27.9594216,181.438222 57.4479614,160.790124 95.4698643,143.123824 L43.0413837,196.282872 L7.00424488,205.068118 Z" id="Path-2-Copy-3" fill="#AD814B" transform="translate(51.237055, 174.095971) scale(-1, 1) rotate(124.000000) translate(-51.237055, -174.095971) "></path>
                        <path d="M373.559352,214.871289 C388.112019,198.46112 408.59082,184.121709 434.995755,171.853056 L398.585935,208.770231 L373.559352,214.871289 Z" id="Path-2-Copy-6" fill="#AD814B" transform="translate(404.277553, 193.362173) rotate(124.000000) translate(-404.277553, -193.362173) "></path>
                        <path d="M195.757718,38.9837946 C222.865182,24.6327844 246.942988,15.0654443 267.991136,10.2817742 L223.981372,41.8539967" id="Path-2-Copy" fill="#AD814B" transform="translate(231.874427, 26.067885) rotate(10.000000) translate(-231.874427, -26.067885) "></path>
                        <path d="M215.802708,40.299388 C242.910172,25.9483778 266.987978,16.3810377 288.036126,11.5973676 L244.026361,43.1695901" id="Path-2-Copy-2" fill="#AD814B" transform="translate(251.919417, 27.383479) rotate(18.000000) translate(-251.919417, -27.383479) "></path>
                        <path d="M228,335.436108 C255.614237,335.436108 278,313.050345 278,285.436108 L178,285.436108 C178,313.050345 200.385763,335.436108 228,335.436108 Z" id="Oval" fill="#1B1B1B"></path>
                    </g>
                    <path d="M163.069889,381.294527 C167.163921,367.361479 181.044271,337.707601 204.710938,292.332891" id="Path-Copy-3" stroke="#58462A" stroke-width="61"></path>
                    <path d="M280.183581,381.294527 C277.492068,364.059345 287.979645,332.754399 311.646311,287.37969" id="Path-Copy-2" stroke="#58462A" stroke-width="61" transform="translate(295.708817, 334.337108) scale(-1, 1) translate(-295.708817, -334.337108) "></path>
                    <path d="M219.02493,358.12699 C218.990244,358.203665 218.955515,358.280386 218.920745,358.357152 C217.193724,357.486299 215.523355,356.583446 213.909639,355.648591 C213.356201,355.336436 212.820813,355.018585 212.303875,354.696436 C194.500334,343.890866 183.929332,328.999817 180.590869,310.023291 C174.991215,278.193675 187.664117,240.469686 210.062736,231.922845 C218.451499,227.736252 213.273536,246.092545 229.973378,262.56759 C250.587393,240.330984 271.473378,228.032502 279.375425,234.431453 C285.457161,239.356346 280.010594,252.816737 268.759818,269.800209 C289.192939,254.856486 305.419371,248.432298 311.865609,255.847847 C316.743825,261.459592 307.871264,272.553927 293.858855,285.844307 C312.866098,275.895671 326.788581,271.427377 330.244548,276.509682 C336.982357,287.292431 321.697707,316.001983 290.018549,341.269724 C260.256845,365.483045 234.733489,364.600897 219.02493,358.12699 Z" id="Combined-Shape-Copy-3" fill="#BC986C" transform="translate(255.541358, 296.676826) scale(-1, 1) translate(-255.541358, -296.676826) "></path>
                    <path d="M173.735601,377.386369 C173.700915,377.463044 173.666187,377.539765 173.631416,377.616531 C171.904395,376.745679 170.234026,375.842825 168.62031,374.90797 C168.066872,374.595815 167.531484,374.277964 167.014547,373.955815 C149.211006,363.150245 138.640004,348.259196 135.301541,329.28267 C129.701886,297.453054 142.374789,259.729065 164.773407,251.182224 C173.16217,246.995631 167.984207,265.351924 184.684049,281.826969 C205.298065,259.590363 226.18405,247.291881 234.086097,253.690832 C240.167833,258.615725 234.721265,272.076116 223.470489,289.059589 C243.903611,274.115865 260.130042,267.691677 266.57628,275.107226 C271.454496,280.718971 262.581935,291.813306 248.569527,305.103686 C267.576769,295.15505 281.499252,290.686756 284.95522,295.769061 C291.693029,306.55181 276.408378,335.261362 244.72922,360.529103 C214.967517,384.742424 189.444161,383.860276 173.735601,377.386369 Z" id="Combined-Shape-Copy-2" fill="#D6BA8E"></path>
                </g>
            </g>
        </g>
    </g>
</svg>