
<svg width="537px" height="537px" viewBox="0 0 537 537" version="1.1" xmlns="http://www.w3.org/2000/svg" xmlns:xlink="http://www.w3.org/1999/xlink">
    <g id="Page-1" stroke="none" stroke-width="1" fill="none" fill-rule="evenodd">
        <g id="Artboard">
            <g id="Group-3" transform="translate(-3.000000, 0.000000)">
                <rect id="Rectangle" fill-opacity="0" fill="#FFFFFF" x="3" y="0" width="537" height="537"></rect>
                <g id="2" transform="translate(42.373380, 81.368793)">
                    <g transform="translate(0.789062, 0.218313)">
                        <g id="Group-2" transform="translate(0.271323, 0.879690)">
                            <g id="Group" transform="translate(24.374427, 4.250000)">
                                <ellipse id="Oval" fill="#AD814B" cx="71.75" cy="89.1935815" rx="71.5" ry="88.5"></ellipse>
                                <ellipse id="Oval-Copy-3" fill="#EDD7B3" cx="67.0167626" cy="80.5228617" rx="44.2716513" ry="60.1862972"></ellipse>
                            </g>
                            <g id="Group-Copy" transform="translate(362.124427, 93.250000) scale(-1, 1) translate(-362.124427, -93.250000) translate(290.124427, 4.250000)">
                                <ellipse id="Oval" fill="#AD814B" cx="71.75" cy="89.1935815" rx="71.5" ry="88.5"></ellipse>
                                <ellipse id="Oval-Copy-3" fill="#EDD7B3" cx="67.0167626" cy="80.5228617" rx="44.2716513" ry="60.1862972"></ellipse>
                            </g>
                            <path d="M231.874427,375.75 C363.534121,375.75 407.374427,284.75 407.374427,218.25 C407.374427,168.952454 344.374427,22.25 228.124427,22.25 C99.8744274,22.25 48.8744274,185.116559 48.8744274,218.25 C48.8744274,284.75 100.214734,375.75 231.874427,375.75 Z" id="Oval" fill="#AD814B" transform="translate(228.124427, 199.000000) scale(1, -1) translate(-228.124427, -199.000000) "></path>
                            <path d="M150.096134,240.777734 C118.901822,231.62131 96.1244274,202.784462 96.1244274,168.627668 C96.1244274,127.104644 129.78549,93.4435815 171.308514,93.4435815 C194.552699,93.4435815 215.333218,103.991785 229.124427,120.562545 C242.915636,103.991785 263.696156,93.4435815 286.940341,93.4435815 C328.463365,93.4435815 362.124427,127.104644 362.124427,168.627668 C362.124427,202.016318 340.359984,230.32161 310.244351,240.130288 L310.244351,282.440063 C310.244351,324.300673 276.309622,358.235402 234.449012,358.235402 L225.891473,358.235402 C184.030863,358.235402 150.096134,324.300673 150.096134,282.440063 L150.096134,240.777734 Z" id="Combined-Shape" fill="#EDD7B3"></path>
                            <rect id="Rectangle" fill="#1B1B1B" x="162.596355" y="132.801225" width="47.0837228" height="82.5894919" rx="23.5418614"></rect>
                            <rect id="Rectangle-Copy-2" fill="#FFFFFF" x="186.138217" y="141.470191" width="16.4160593" height="28.7953865" rx="8.20802965"></rect>
                            <rect id="Rectangle-Copy" fill="#1B1B1B" x="254.068777" y="132.801225" width="47.0837228" height="82.5894919" rx="23.5418614"></rect>
                            <rect id="Rectangle-Copy-3" fill="#FFFFFF" x="277.610638" y="141.25" width="16.4160593" height="28.7953865" rx="8.20802965"></rect>
                            <ellipse id="Oval" fill="#AD814B" cx="231.874427" cy="235.014647" rx="26" ry="14.5"></ellipse>
                            <path d="M174.127729,36.75 C202.461063,21.75 227.627729,11.75 249.627729,6.75 L203.627729,39.75" id="Path-2" fill="#AD814B" transform="translate(211.877729, 23.250000) rotate(10.000000) translate(-211.877729, -23.250000) "></path>
                            <path d="M7.00424488,205.068118 C27.9594216,181.438222 57.4479614,160.790124 95.4698643,143.123824 L43.0413837,196.282872 L7.00424488,205.068118 Z" id="Path-2-Copy-3" fill="#AD814B" transform="translate(51.237055, 174.095971) scale(-1, 1) rotate(124.000000) translate(-51.237055, -174.095971) "></path>
                            <path d="M373.559352,214.871289 C388.112019,198.46112 408.59082,184.121709 434.995755,171.853056 L398.585935,208.770231 L373.559352,214.871289 Z" id="Path-2-Copy-6" fill="#AD814B" transform="translate(404.277553, 193.362173) rotate(124.000000) translate(-404.277553, -193.362173) "></path>
                            <path d="M195.757718,38.9837946 C222.865182,24.6327844 246.942988,15.0654443 267.991136,10.2817742 L223.981372,41.8539967" id="Path-2-Copy" fill="#AD814B" transform="translate(231.874427, 26.067885) rotate(10.000000) translate(-231.874427, -26.067885) "></path>
                            <path d="M215.802708,40.299388 C242.910172,25.9483778 266.987978,16.3810377 288.036126,11.5973676 L244.026361,43.1695901" id="Path-2-Copy-2" fill="#AD814B" transform="translate(251.919417, 27.383479) rotate(18.000000) translate(-251.919417, -27.383479) "></path>
                        </g>
                        <path d="M93.3442244,365.364211 C91.5970172,305.332732 102.556747,252.629637 126.223414,207.254928" id="Path" stroke="#58462A" stroke-width="61"></path>
                        <path d="M331.118341,366.313148 C332.118341,298.864255 344.451675,242.452455 368.118341,197.077745" id="Path-Copy" stroke="#58462A" stroke-width="61" transform="translate(349.618341, 281.695447) scale(-1, 1) translate(-349.618341, -281.695447) "></path>
                        <path d="M271.614355,223.96764 C271.579668,224.044315 271.54494,224.121036 271.51017,224.197802 C269.783148,223.32695 268.11278,222.424096 266.499063,221.489241 C265.945625,221.177086 265.410238,220.859235 264.8933,220.537086 C247.089759,209.731516 236.518757,194.840467 233.180294,175.863941 C227.580639,144.034325 240.253542,106.310336 262.65216,97.7634948 C271.040923,93.5769022 265.86296,111.933195 282.562803,128.40824 C303.176818,106.171634 324.062803,93.8731517 331.96485,100.272103 C338.046586,105.196996 332.600018,118.657387 321.349243,135.64086 C341.782364,120.697136 358.008795,114.272948 364.455034,121.688497 C369.333249,127.300243 360.460688,138.394577 346.44828,151.684957 C365.455522,141.736321 379.378006,137.268027 382.833973,142.350332 C389.571782,153.133081 374.287132,181.842633 342.607973,207.110374 C312.84627,231.323695 287.322914,230.441547 271.614355,223.96764 Z" id="Combined-Shape-Copy" fill="#BC986C" transform="translate(308.130783, 162.517476) scale(-1, 1) translate(-308.130783, -162.517476) "></path>
                        <path d="M128.339274,227.410346 C128.304588,227.487021 128.26986,227.563742 128.235089,227.640507 C126.508068,226.769655 124.837699,225.866802 123.223983,224.931947 C122.670545,224.619792 122.135157,224.301941 121.61822,223.979792 C103.814679,213.174222 93.2436767,198.283173 89.9052136,179.306647 C84.305559,147.477031 96.9784616,109.753042 119.37708,101.206201 C127.765843,97.019608 122.58788,115.375901 139.287722,131.850946 C159.901738,109.61434 180.787723,97.3158575 188.68977,103.714809 C194.771506,108.639701 189.324938,122.100093 178.074162,139.083565 C198.507284,124.139842 214.733715,117.715654 221.179953,125.131203 C226.058169,130.742948 217.185608,141.837283 203.1732,155.127663 C222.180442,145.179027 236.102925,140.710733 239.558893,145.793038 C246.296702,156.575787 231.012051,185.285339 199.332893,210.55308 C169.57119,234.766401 144.047834,233.884252 128.339274,227.410346 Z" id="Combined-Shape" fill="#D6BA8E"></path>
                    </g>
                    <rect id="Rectangle-Copy-4" fill="#1B1B1B" x="210.135681" y="292.551205" width="47.0837228" height="43.0182327" rx="21.5091164"></rect>
                </g>
            </g>
        </g>
    </g>
</svg>