
<svg width="132px" height="131px" viewBox="0 0 132 131" version="1.1" xmlns="http://www.w3.org/2000/svg" xmlns:xlink="http://www.w3.org/1999/xlink">
    <g id="Page-1" stroke="none" stroke-width="1" fill="none" fill-rule="evenodd">
        <g id="Desktop" transform="translate(-271.000000, -564.000000)" fill="#006500">
            <g id="Group-Copy" transform="translate(270.664317, 563.929017)">
                <path d="M0.548145554,127.390848 L0.548145554,38.8890496 C0.548145554,37.2321954 1.8912913,35.8890496 3.54814555,35.8890496 C4.32030561,35.8890496 5.0627321,36.1867804 5.6209418,36.7202906 L98.2200456,125.222089 C99.4178181,126.366863 99.4607821,128.265872 98.3160084,129.463644 C97.7500025,130.055854 96.9664411,130.390848 96.1472493,130.390848 L3.54814555,130.390848 C1.8912913,130.390848 0.548145554,129.047702 0.548145554,127.390848 Z" id="Path"></path>
                <path d="M28.4640714,96.0031317 L28.4640714,7.50133339 C28.4640714,5.84447914 29.8072171,4.50133339 31.4640714,4.50133339 C32.2362314,4.50133339 32.9786579,4.7990642 33.5368676,5.33257436 L126.135971,93.8343727 C127.333744,94.9791464 127.376708,96.8781554 126.231934,98.0759279 C125.665928,98.6681378 124.882367,99.0031317 124.063175,99.0031317 L31.4640714,99.0031317 C29.8072171,99.0031317 28.4640714,97.659986 28.4640714,96.0031317 Z" id="Path-Copy" transform="translate(80.004048, 49.743685) scale(-1, -1) translate(-80.004048, -49.743685) "></path>
            </g>
        </g>
    </g>
</svg>